<svg width="497" height="93" viewBox="0 0 497 93" fill="none" xmlns="http://www.w3.org/2000/svg">
<path d="M109.5 92.5V88H105V83.5H114V88H127.5V79H109.5V74.5H105V65.5H109.5V61H132V65.5H136.5V70H127.5V65.5H114V74.5H132V79H136.5V88H132V92.5H109.5Z" fill="white"/>
<path d="M154.5 92.5V74.5H145.5V70H154.5V61H163.5V70H172.5V74.5H163.5V92.5H154.5Z" fill="white"/>
<path d="M181.5 92.5V88H177V70H186V88H199.5V70H208.5V92.5H181.5Z" fill="white"/>
<path d="M217.5 92.5V88H213V74.5H217.5V70H235.5V61H244.5V92.5H217.5ZM222 88H235.5V74.5H222V88Z" fill="white"/>
<path d="M262.5 65.5V61H271.5V65.5H262.5ZM253.5 92.5V88H262.5V74.5H258V70H271.5V88H280.5V92.5H253.5Z" fill="white"/>
<path d="M289.5 92.5V88H285V74.5H289.5V70H312V74.5H316.5V88H312V92.5H289.5ZM294 88H307.5V74.5H294V88Z" fill="white"/>
<path d="M334.5 92.5V74.5H325.5V70H334.5V65.5H339V61H352.5V65.5H343.5V70H352.5V74.5H343.5V92.5H334.5Z" fill="white"/>
<path d="M361.5 92.5V88H357V74.5H361.5V70H384V74.5H388.5V88H384V92.5H361.5ZM366 88H379.5V74.5H366V88Z" fill="white"/>
<path d="M397.5 92.5V88H393V74.5H397.5V70H420V74.5H424.5V88H420V92.5H397.5ZM402 88H415.5V74.5H402V88Z" fill="white"/>
<path d="M433.5 92.5V88H429V74.5H433.5V70H451.5V61H460.5V92.5H433.5ZM438 88H451.5V74.5H438V88Z" fill="white"/>
<path d="M465 92.5V88H487.5V83.5H469.5V79H465V74.5H469.5V70H492V74.5H474V79H492V83.5H496.5V88H492V92.5H465Z" fill="white"/>
<path d="M33.5 75.5V71H29V66.5H38V71H51.5V62H33.5V57.5H29V48.5H33.5V44H56V48.5H60.5V53H51.5V48.5H38V57.5H56V62H60.5V71H56V75.5H33.5Z" fill="white"/>
<path d="M0 25H10V93H0V25Z" fill="white"/>
<path d="M80 31H90V93H80V31Z" fill="white"/>
<path d="M20 31H80V35H20V31Z" fill="white"/>
<path d="M10 89H80V93H10V89Z" fill="white"/>
<path d="M40 0H50V5H40V0Z" fill="white"/>
<path d="M40 5H50V10H40V5Z" fill="white"/>
<path d="M30 10H40V15H30V10Z" fill="white"/>
<path d="M20 15H30V20H20V15Z" fill="white"/>
<path d="M8 20H18V25H8V20Z" fill="white"/>
<path d="M50 10H60V15H50V10Z" fill="white"/>
<path d="M30 5H40V10H30V5Z" fill="white"/>
<path d="M20 10H30V15H20V10Z" fill="white"/>
<path d="M10 15H20V20H10V15Z" fill="white"/>
<path d="M0 20H10V25H0V20Z" fill="white"/>
<path d="M60 10H70V15H60V10Z" fill="white"/>
<path d="M60 15H70V20H60V15Z" fill="white"/>
<path d="M70 15H80V20H70V15Z" fill="white"/>
<path d="M70 20H80V25H70V20Z" fill="white"/>
<path d="M80 20H90V25H80V20Z" fill="white"/>
<path d="M50 5H60V10H50V5Z" fill="white"/>
</svg>
